<svg width="56" height="78" viewBox="0 0 56 78" fill="none" xmlns="http://www.w3.org/2000/svg">
<g id="Group 6">
<rect id="Rectangle 28" x="37.8739" y="77.5645" width="32.1374" height="32.1374" rx="16.0687" transform="rotate(180 37.8739 77.5645)" fill="url(#paint0_linear_30_11731)"/>
<path id="Union" d="M39.8462 61.496C39.8462 68.7819 43.5825 66.8297 47.4613 62.8401C53.7963 56.3242 56 47.0165 56 37.9286C56 25.0968 43.6845 10.5219 32.8195 3.69501C29.5389 1.63368 25.6751 0.434962 21.5386 0.434962C9.64326 0.434963 0.000185807 10.0272 0.000186841 21.8599C0.000187876 33.6925 9.64327 43.2848 21.5386 43.2848C31.5963 43.2848 39.8462 51.4382 39.8462 61.496Z" fill="url(#paint1_linear_30_11731)"/>
</g>
<defs>
<linearGradient id="paint0_linear_30_11731" x1="37.8739" y1="77.5645" x2="70.0113" y2="109.702" gradientUnits="userSpaceOnUse">
<stop offset="0.15201" stop-color="#F7BD14"/>
<stop offset="0.853986" stop-color="#EC4234"/>
</linearGradient>
<linearGradient id="paint1_linear_30_11731" x1="72.1535" y1="38.9999" x2="-2.01803" y2="4.95966" gradientUnits="userSpaceOnUse">
<stop offset="0.209983" stop-color="#434AFF" stop-opacity="0"/>
<stop offset="1" stop-color="#F17B25"/>
</linearGradient>
</defs>
</svg>
